#N canvas -9 -9 1920 976 16;
#X obj 1210 780 catch~ \$0-output;
#X obj 1178 920 dac~ 1 2;
#X obj 1175 649 tgl 40 0 empty empty On/Off -10 -15 1 18 -262144 -261864
-40504 0 1;
#X obj 1429 789 metro 200;
#X obj 1358 895 tabwrite~ \$0-scope;
#N canvas 0 22 450 278 (subpatch) 0;
#X array \$0-scope 8820 float 0;
#X coords 0 1 8820 -1 200 140 1;
#X restore 1402 293 graph;
#X obj 66 427 bng 30 250 50 0 empty empty Bass 0 -10 0 18 -262144 -261376
-40504;
#X msg 66 498 0 \, 1 200;
#X obj 66 532 line~;
#X obj 66 634 -~ 0.25;
#X obj 66 668 cos~;
#X obj 66 736 throw~ \$0-output;
#X obj 66 566 sqrt~;
#X obj 300 493 bng 30 250 50 0 empty empty Snare 0 -10 1 18 -262144
-261864 -40504;
#X obj 300 576 t b b;
#X msg 300 614 1 \, 0 100;
#X obj 300 644 line~;
#X obj 300 678 pow~ 4;
#X obj 299 737 *~;
#X obj 458 657 line~;
#X obj 458 691 pow~ 4;
#X obj 471 745 *~;
#X obj 522 623 noise~;
#X msg 458 623 1 \, 0 200;
#X obj 298 793 +~;
#X obj 299 886 throw~ \$0-output;
#X obj 522 657 hip~ 3000;
#X obj 522 691 bp~ 5000 2;
#X obj 298 827 lop~ 4000;
#X obj 325 708 osc~ 200;
#X obj 755 569 bng 24 250 50 0 empty empty Highhat 0 -10 1 18 -262144
-176111 -40504;
#X obj 765 668 line~;
#X obj 765 702 pow~ 4;
#X obj 764 746 *~;
#X obj 897 724 hip~ 8000;
#X obj 898 693 hip~ 8000;
#X obj 764 834 throw~ \$0-output;
#X obj 846 446 phasor~ 350;
#X obj 846 480 *~ 2;
#X obj 846 530 -~ 1;
#X obj 984 464 *~ 2;
#X obj 985 495 -~ 1;
#X obj 984 433 phasor~ 800;
#X obj 897 585 +~;
#X obj 898 662 hip~ 8000;
#X obj 764 788 *~ 4;
#X obj 985 529 noise~;
#X obj 986 558 /~ 4;
#X msg 764 625 1 \, 0 100;
#X obj 198 55 tgl 40 0 empty empty On/Off -5 -15 1 20 -262144 -261376
-40504 0 1;
#X obj 271 270 random 3;
#X obj 271 304 sel 0 1 2;
#X obj 271 168 i;
#X obj 321 168 + 1;
#X obj 271 202 sel 0;
#X obj 1211 853 /~ 5;
#X msg 271 236 seed 1652;
#X obj 897 621 +~;
#X obj 271 202 % 8;
#X obj 198 106 metro 300;
#X obj 66 702 lop~ 1000;
#X obj 66 600 *~ 20;
#X connect 0 0 4 0;
#X connect 0 0 55 0;
#X connect 2 0 3 0;
#X connect 3 0 4 0;
#X connect 6 0 7 0;
#X connect 7 0 8 0;
#X connect 8 0 12 0;
#X connect 9 0 10 0;
#X connect 10 0 60 0;
#X connect 12 0 61 0;
#X connect 13 0 14 0;
#X connect 14 0 15 0;
#X connect 14 1 23 0;
#X connect 15 0 16 0;
#X connect 16 0 17 0;
#X connect 17 0 18 0;
#X connect 18 0 24 0;
#X connect 19 0 20 0;
#X connect 20 0 21 0;
#X connect 21 0 24 1;
#X connect 22 0 26 0;
#X connect 23 0 19 0;
#X connect 24 0 28 0;
#X connect 26 0 27 0;
#X connect 27 0 21 1;
#X connect 28 0 25 0;
#X connect 29 0 18 1;
#X connect 30 0 48 0;
#X connect 31 0 32 0;
#X connect 32 0 33 0;
#X connect 33 0 45 0;
#X connect 34 0 33 1;
#X connect 35 0 34 0;
#X connect 37 0 38 0;
#X connect 38 0 39 0;
#X connect 39 0 43 0;
#X connect 40 0 41 0;
#X connect 41 0 43 1;
#X connect 42 0 40 0;
#X connect 43 0 57 0;
#X connect 44 0 35 0;
#X connect 45 0 36 0;
#X connect 46 0 47 0;
#X connect 47 0 57 1;
#X connect 48 0 31 0;
#X connect 49 0 59 0;
#X connect 50 0 51 0;
#X connect 51 0 6 0;
#X connect 51 1 13 0;
#X connect 51 2 30 0;
#X connect 52 0 53 0;
#X connect 52 0 58 0;
#X connect 53 0 52 1;
#X connect 54 0 56 0;
#X connect 55 0 1 0;
#X connect 55 0 1 1;
#X connect 56 0 50 0;
#X connect 57 0 44 0;
#X connect 58 0 54 0;
#X connect 59 0 50 0;
#X connect 59 0 52 0;
#X connect 60 0 11 0;
#X connect 61 0 9 0;
