#N canvas -9 -9 1920 976 10;
#X obj 204 106 soundfiler;
#N canvas 0 0 450 300 (subpatch) 0;
#X array databend 1.34706e+007 float 2;
#X coords 0 1 1.34706e+007 -1 200 140 1;
#X restore 195 217 graph;
#X obj 204 2 bng 30 250 50 0 empty empty empty 17 7 0 10 -262144 -261503
-1;
#X obj 204 46 openpanel;
#X msg 204 75 read -resize -raw 0 1 2 n \$1 databend;
#X obj -2 320 tabplay~ databend;
#X obj -12 353 dac~;
#X text 240 6 press to choose file;
#X obj -2 135 tgl 20 0 empty empty empty 17 7 0 10 -262144 -1 -1 0
1;
#X obj -2 182 metro 500;
#X obj -2 210 bng 30 250 50 0 empty empty empty 17 7 0 10 -262144 -217076
-1;
#X obj -2 262 random 0;
#X msg -2 294 \$1 22050;
#X floatatom 204 135 5 0 0 0 - - -;
#X obj 795 731 catch~ \$0-output;
#X obj 778 899 dac~ 1 2;
#X obj 1014 253 tgl 20 0 empty empty empty -10 -15 1 18 -262144 -261864
-40504 0 1;
#X obj 955 854 tabwrite~ \$0-scope;
#N canvas 0 22 450 278 (subpatch) 0;
#X array \$0-scope 8820 float 0;
#X coords 0 1 8820 -1 200 140 1;
#X restore 1165 394 graph;
#X obj 34 586 bng 30 250 50 0 empty empty empty 0 -10 0 18 -262144
-261376 -40504;
#X msg 34 657 0 \, 1 200;
#X obj 34 691 line~;
#X obj 34 793 -~ 0.25;
#X obj 34 827 cos~;
#X obj 34 895 throw~ \$0-output;
#X obj 34 725 sqrt~;
#X obj 284 505 bng 30 250 50 0 empty empty empty 0 -10 1 18 -262144
-261864 -40504;
#X obj 284 588 t b b;
#X msg 284 626 1 \, 0 100;
#X obj 284 656 line~;
#X obj 284 690 pow~ 4;
#X obj 283 749 *~;
#X obj 442 669 line~;
#X obj 442 703 pow~ 4;
#X obj 455 757 *~;
#X obj 512 635 noise~;
#X msg 442 635 1 \, 0 200;
#X obj 282 805 +~;
#X obj 283 898 throw~ \$0-output;
#X obj 512 669 hip~ 3000;
#X obj 512 703 bp~ 5000 2;
#X obj 282 839 lop~ 4000;
#X obj 309 720 osc~ 200;
#X obj 595 349 bng 30 250 50 0 empty empty empty 0 -10 1 18 -262144
-176111 -40504;
#X obj 596 444 line~;
#X obj 596 478 pow~ 4;
#X obj 595 522 *~;
#X obj 778 615 hip~ 8000;
#X obj 779 584 hip~ 8000;
#X obj 595 610 throw~ \$0-output;
#X obj 727 337 phasor~ 350;
#X obj 727 371 *~ 2;
#X obj 727 421 -~ 1;
#X obj 865 355 *~ 2;
#X obj 866 386 -~ 1;
#X obj 865 324 phasor~ 800;
#X obj 778 476 +~;
#X obj 779 553 hip~ 8000;
#X obj 595 564 *~ 4;
#X obj 866 420 noise~;
#X obj 867 449 /~ 4;
#X msg 595 401 1 \, 0 100;
#X obj 476 60 tgl 20 0 empty empty empty -5 -15 0 12 -262144 -172032
-1 0 1;
#X obj 549 275 random 3;
#X obj 549 309 sel 0 1 2;
#X obj 549 173 i;
#X obj 599 173 + 1;
#X obj 549 207 sel 0;
#X obj 796 804 /~ 5;
#X msg 549 241 seed 1652;
#X obj 778 512 +~;
#X obj 549 207 % 8;
#X obj 476 111 metro 300;
#X obj 34 861 lop~ 1000;
#X obj 34 759 *~ 20;
#X text 504 58 press to start drums;
#X text 77 593 bass;
#X text 329 508 snare;
#X text 632 356 high hat;
#X text 1051 251 press to start scope;
#X text 23 137 press to destroy file;
#X obj 1014 740 metro 500;
#X connect 0 0 13 0;
#X connect 2 0 3 0;
#X connect 3 0 4 0;
#X connect 4 0 0 0;
#X connect 5 0 6 0;
#X connect 5 0 6 1;
#X connect 8 0 9 0;
#X connect 9 0 10 0;
#X connect 10 0 11 0;
#X connect 11 0 12 0;
#X connect 12 0 5 0;
#X connect 13 0 11 1;
#X connect 14 0 17 0;
#X connect 14 0 68 0;
#X connect 16 0 81 0;
#X connect 19 0 20 0;
#X connect 20 0 21 0;
#X connect 21 0 25 0;
#X connect 22 0 23 0;
#X connect 23 0 73 0;
#X connect 25 0 74 0;
#X connect 26 0 27 0;
#X connect 27 0 28 0;
#X connect 27 1 36 0;
#X connect 28 0 29 0;
#X connect 29 0 30 0;
#X connect 30 0 31 0;
#X connect 31 0 37 0;
#X connect 32 0 33 0;
#X connect 33 0 34 0;
#X connect 34 0 37 1;
#X connect 35 0 39 0;
#X connect 36 0 32 0;
#X connect 37 0 41 0;
#X connect 39 0 40 0;
#X connect 40 0 34 1;
#X connect 41 0 38 0;
#X connect 42 0 31 1;
#X connect 43 0 61 0;
#X connect 44 0 45 0;
#X connect 45 0 46 0;
#X connect 46 0 58 0;
#X connect 47 0 46 1;
#X connect 48 0 47 0;
#X connect 50 0 51 0;
#X connect 51 0 52 0;
#X connect 52 0 56 0;
#X connect 53 0 54 0;
#X connect 54 0 56 1;
#X connect 55 0 53 0;
#X connect 56 0 70 0;
#X connect 57 0 48 0;
#X connect 58 0 49 0;
#X connect 59 0 60 0;
#X connect 60 0 70 1;
#X connect 61 0 44 0;
#X connect 62 0 72 0;
#X connect 63 0 64 0;
#X connect 64 0 19 0;
#X connect 64 1 26 0;
#X connect 64 2 43 0;
#X connect 65 0 66 0;
#X connect 65 0 71 0;
#X connect 66 0 65 1;
#X connect 67 0 69 0;
#X connect 68 0 15 0;
#X connect 68 0 15 1;
#X connect 69 0 63 0;
#X connect 70 0 57 0;
#X connect 71 0 67 0;
#X connect 72 0 63 0;
#X connect 72 0 65 0;
#X connect 73 0 24 0;
#X connect 74 0 22 0;
#X connect 81 0 17 0;
