#N canvas 761 52 950 914 12;
#X obj 103 251 inlet;
#X obj 103 287 mtof;
#X floatatom 237 534 5 0 0 0 - - - 0;
#X obj 103 647 phasor~;
#X obj 237 684 s Filter_Freq;
#X obj 237 372 bng 15 250 50 0 empty empty empty 17 7 0 10 #fcfcfc
#000000 #000000;
#X obj 286 422 delay 10;
#X msg 286 457 0 250;
#X msg 237 460 0 10;
#X obj 237 503 line;
#X obj 237 597 * 4000;
#X obj 237 625 + 500;
#X floatatom 237 653 5 0 0 0 - - - 0;
#X floatatom 103 621 5 0 0 0 - - - 0;
#X obj 390 393 receive~ Saw_Bass;
#X obj 402 425 r Filter_Freq;
#X obj 415 460 loadbang;
#X msg 415 496 9;
#X obj 390 544 vcf~;
#X obj 538 390 receive~ Saw_Bass;
#X obj 550 422 r Filter_Freq;
#X obj 563 457 loadbang;
#X obj 538 541 vcf~;
#X msg 563 493 25;
#X obj 684 614 *~;
#X obj 685 648 outlet~;
#X floatatom 702 562 5 0 0 0 - - - 0;
#X obj 757 460 delay 10;
#X msg 757 495 0 250;
#X msg 702 474 0 10;
#X obj 702 531 line;
#X obj 715 385 bng 15 250 50 0 empty empty empty 17 7 0 10 #fcfcfc
#000000 #000000;
#X text 269 13 vcf~: Resonant Lowpass filter Input 1: Signal Input
2: Cut-off frequency Input 3: Resonance;
#X text 11 9 Roland TB 303 Bass (Aci_ Bass);
#X obj 103 686 send~ Saw_Bass;
#X obj 237 566 0.44;
#X connect 0 0 1 0;
#X connect 1 0 5 0;
#X connect 1 0 13 0;
#X connect 1 0 31 0;
#X connect 2 0 35 0;
#X connect 3 0 34 0;
#X connect 5 0 6 0;
#X connect 5 0 8 0;
#X connect 6 0 7 0;
#X connect 7 0 9 0;
#X connect 8 0 9 0;
#X connect 9 0 2 0;
#X connect 10 0 11 0;
#X connect 11 0 12 0;
#X connect 12 0 4 0;
#X connect 13 0 3 0;
#X connect 14 0 18 0;
#X connect 15 0 18 1;
#X connect 16 0 17 0;
#X connect 17 0 18 2;
#X connect 18 0 24 0;
#X connect 19 0 22 0;
#X connect 20 0 22 1;
#X connect 21 0 23 0;
#X connect 22 0 24 0;
#X connect 23 0 22 2;
#X connect 24 0 25 0;
#X connect 26 0 24 1;
#X connect 27 0 28 0;
#X connect 28 0 30 0;
#X connect 29 0 30 0;
#X connect 30 0 26 0;
#X connect 31 0 27 0;
#X connect 31 0 29 0;
#X connect 35 0 10 0;
