#N canvas 879 30 1031 917 12;
#X obj 108 154 bng 15 250 50 0 empty empty empty 17 7 0 10 #fcfcfc
#000000 #000000;
#X obj 267 185 bng 15 250 50 0 empty empty empty 17 7 0 10 #fcfcfc
#000000 #000000;
#X obj 108 117 r 2_Measures;
#X obj 108 182 scales-sub;
#X floatatom 108 211 5 0 0 0 - - - 0;
#X obj 41 282 / 2;
#X floatatom 41 306 5 0 0 0 - - - 0;
#X obj 41 334 phasor~;
#X obj 108 387 lop~ 100;
#X obj 108 512 *~ 0.5;
#X text 26 26 Ambient-Pad;
#X obj 173 282 * 1.005;
#X floatatom 173 306 5 0 0 0 - - - 0;
#X obj 108 334 phasor~;
#X obj 173 334 phasor~;
#X obj 319 217 delay;
#X obj 267 390 line;
#X msg 267 278 1 200;
#X msg 320 277 0 500;
#X obj 108 483 *~;
#X obj 351 134 - 500;
#X floatatom 351 109 5 0 0 0 - - - 0;
#X obj 351 81 receive 2_Measures_Time;
#X obj 423 109 receive ON;
#X obj 423 142 sel 0;
#X obj 423 175 delay 5;
#X obj 108 545 send~ Ambient-Pad;
#X connect 0 0 3 0;
#X connect 1 0 17 0;
#X connect 1 0 15 0;
#X connect 2 0 0 0;
#X connect 2 0 1 0;
#X connect 3 0 4 0;
#X connect 4 0 5 0;
#X connect 4 0 11 0;
#X connect 4 0 13 0;
#X connect 5 0 6 0;
#X connect 6 0 7 0;
#X connect 7 0 8 0;
#X connect 8 0 19 0;
#X connect 9 0 26 0;
#X connect 11 0 12 0;
#X connect 12 0 14 0;
#X connect 13 0 8 0;
#X connect 14 0 8 0;
#X connect 15 0 18 0;
#X connect 16 0 19 1;
#X connect 17 0 16 0;
#X connect 18 0 16 0;
#X connect 19 0 9 0;
#X connect 20 0 15 1;
#X connect 21 0 20 0;
#X connect 22 0 21 0;
#X connect 23 0 24 0;
#X connect 24 0 25 0;
#X connect 25 0 18 0;
