#N canvas 746 86 1920 976 12;
#X obj 374 48 r ON;
#X obj 434 43 r 4th_time;
#X obj 434 91 / 2;
#X floatatom 434 130 5 0 0 0 - - - 0;
#X obj 402 194 metro;
#X obj 205 196 loadbang;
#X obj 327 193 sel 0;
#X msg 287 280 -1;
#X obj 401 83 tgl 15 0 empty empty empty 17 7 0 10 #fcfcfc #000000
#000000 0 1;
#X obj 287 250 bng 15 250 50 0 empty empty empty 17 7 0 10 #fcfcfc
#000000 #000000;
#X obj 402 234 bng 15 250 50 0 empty empty empty 17 7 0 10 #fcfcfc
#000000 #000000;
#X obj 403 375 int 1;
#X text 243 246 reset;
#X obj 471 408 + 1;
#X floatatom 550 520 5 0 0 0 - - - 0;
#X obj 550 552 % 8;
#X obj 550 579 + 1;
#X floatatom 547 627 5 0 0 0 - - - 0;
#X obj 90 673 % 8;
#X obj 91 696 + 1;
#X floatatom 91 721 5 0 0 0 - - - 0;
#X obj 91 758 sel 1;
#X obj 91 784 bng 15 250 50 0 empty empty empty 17 7 0 10 #fcfcfc #000000
#000000;
#X obj 91 805 s Whole_Note;
#X obj 226 700 + 1;
#X floatatom 226 725 5 0 0 0 - - - 0;
#X obj 226 762 sel 1;
#X obj 226 788 bng 15 250 50 0 empty empty empty 17 7 0 10 #fcfcfc
#000000 #000000;
#X obj 225 677 % 32;
#X obj 226 809 s New_Pattern;
#X obj 377 886 sel 1;
#X obj 377 916 bng 15 250 50 0 empty empty empty 17 7 0 10 #fcfcfc
#000000 #000000;
#X obj 377 944 s One;
#X obj 428 887 bng 15 250 50 0 empty empty empty 17 7 0 10 #fcfcfc
#000000 #000000;
#X obj 428 857 sel 2;
#X obj 428 915 s Two;
#X obj 487 856 bng 15 250 50 0 empty empty empty 17 7 0 10 #fcfcfc
#000000 #000000;
#X obj 545 828 bng 15 250 50 0 empty empty empty 17 7 0 10 #fcfcfc
#000000 #000000;
#X obj 598 805 bng 15 250 50 0 empty empty empty 17 7 0 10 #fcfcfc
#000000 #000000;
#X obj 659 779 bng 15 250 50 0 empty empty empty 17 7 0 10 #fcfcfc
#000000 #000000;
#X obj 720 746 bng 15 250 50 0 empty empty empty 17 7 0 10 #fcfcfc
#000000 #000000;
#X obj 777 712 bng 15 250 50 0 empty empty empty 17 7 0 10 #fcfcfc
#000000 #000000;
#X obj 487 884 s Three;
#X obj 545 856 s Four;
#X obj 487 826 sel 3;
#X obj 545 798 sel 4;
#X obj 598 775 sel 5;
#X obj 659 749 sel 6;
#X obj 720 716 sel 7;
#X obj 777 682 sel 8;
#X obj 777 740 s Eight;
#X obj 720 774 s Seven;
#X obj 659 807 s Six;
#X obj 598 833 s Five;
#X text 1048 40 Bass Clock;
#X text 477 106 Eighth Note Length;
#X text 1062 74 ON/OFF;
#X obj 1077 152 s ON;
#X obj 1077 107 tgl 15 0 empty empty empty 17 7 0 10 #fcfcfc #000000
#000000 0 1;
#X connect 0 0 8 0;
#X connect 1 0 2 0;
#X connect 2 0 3 0;
#X connect 3 0 4 1;
#X connect 4 0 10 0;
#X connect 5 0 9 0;
#X connect 6 0 9 0;
#X connect 7 0 11 0;
#X connect 8 0 6 0;
#X connect 8 0 4 0;
#X connect 9 0 7 0;
#X connect 10 0 11 0;
#X connect 11 0 14 0;
#X connect 11 0 13 0;
#X connect 13 0 11 1;
#X connect 14 0 15 0;
#X connect 14 0 18 0;
#X connect 14 0 28 0;
#X connect 15 0 16 0;
#X connect 16 0 17 0;
#X connect 17 0 30 0;
#X connect 17 0 34 0;
#X connect 17 0 44 0;
#X connect 17 0 45 0;
#X connect 17 0 46 0;
#X connect 17 0 47 0;
#X connect 17 0 48 0;
#X connect 17 0 49 0;
#X connect 18 0 19 0;
#X connect 19 0 20 0;
#X connect 20 0 21 0;
#X connect 21 0 22 0;
#X connect 22 0 23 0;
#X connect 24 0 25 0;
#X connect 25 0 26 0;
#X connect 26 0 27 0;
#X connect 27 0 29 0;
#X connect 28 0 24 0;
#X connect 30 0 31 0;
#X connect 31 0 32 0;
#X connect 33 0 35 0;
#X connect 34 0 33 0;
#X connect 36 0 42 0;
#X connect 37 0 43 0;
#X connect 38 0 53 0;
#X connect 39 0 52 0;
#X connect 40 0 51 0;
#X connect 41 0 50 0;
#X connect 44 0 36 0;
#X connect 45 0 37 0;
#X connect 46 0 38 0;
#X connect 47 0 39 0;
#X connect 48 0 40 0;
#X connect 49 0 41 0;
#X connect 58 0 57 0;
