#N canvas 924 84 947 842 12;
#X obj 90 5 inlet;
#X obj 90 62 random 5;
#X floatatom 90 91 5 0 0 0 - - - 0;
#X obj 53 230 sel 0;
#X obj 124 230 sel 1;
#X obj 188 229 sel 2;
#X obj 249 228 sel 3;
#X obj 331 226 sel 4;
#X msg 53 270 40;
#X msg 124 270 41;
#X msg 188 265 43;
#X msg 249 261 47;
#X msg 331 256 52;
#X msg 53 427 set \$1;
#X obj 53 451 outlet;
#X obj 90 38 bng 15 250 50 0 empty empty empty 17 7 0 10 #fcfcfc #000000
#000000;
#X floatatom 53 389 5 0 0 0 - - - 0;
#X text 80 269 E;
#X text 149 271 F;
#X text 214 266 G;
#X text 276 262 B;
#X text 357 255 E;
#X text 256 26 Bass Note subpatch;
#X connect 0 0 15 0;
#X connect 1 0 2 0;
#X connect 2 0 3 0;
#X connect 2 0 4 0;
#X connect 2 0 5 0;
#X connect 2 0 6 0;
#X connect 2 0 7 0;
#X connect 3 0 8 0;
#X connect 4 0 9 0;
#X connect 5 0 10 0;
#X connect 6 0 11 0;
#X connect 7 0 12 0;
#X connect 8 0 16 0;
#X connect 9 0 16 0;
#X connect 10 0 16 0;
#X connect 11 0 16 0;
#X connect 12 0 16 0;
#X connect 13 0 14 0;
#X connect 15 0 1 0;
#X connect 16 0 13 0;
