#N canvas 872 12 1019 954 12;
#X obj 15 72 loadbang;
#X obj 120 70 loadbang;
#X floatatom 120 126 5 0 0 0 - - - 0;
#X obj 98 146 bng 15 250 50 0 empty empty empty 17 7 0 10 #fcfcfc #000000
#000000;
#X obj 102 195 /;
#X floatatom 102 221 5 0 0 0 - - - 0;
#X obj 102 246 s 4th_time;
#X obj 36 279 r ON;
#X obj 68 306 r 4th_time;
#X obj 68 333 * 8;
#X obj 36 360 metro;
#X obj 36 434 s 2_Measures;
#X msg 15 104 60000;
#X msg 120 97 140;
#X obj 80 360 send 2_Measures_Time;
#X obj 36 406 bng 15 250 50 0 empty empty empty 17 7 0 10 #fcfcfc #000000
#000000;
#X obj 36 337 tgl 15 0 empty empty empty 17 7 0 10 #fcfcfc #000000
#000000 0 1;
#X text 24 29 BPM;
#X text 285 14 ON/OFF;
#X obj 299 52 tgl 15 0 empty empty empty 17 7 0 10 #fcfcfc #000000
#000000 0 1;
#X obj 299 73 s ON;
#X text 271 148 s = send r = receive;
#X connect 0 0 12 0;
#X connect 1 0 13 0;
#X connect 2 0 4 1;
#X connect 3 0 4 0;
#X connect 4 0 5 0;
#X connect 5 0 6 0;
#X connect 7 0 16 0;
#X connect 8 0 9 0;
#X connect 9 0 10 1;
#X connect 9 0 14 0;
#X connect 10 0 15 0;
#X connect 12 0 4 0;
#X connect 13 0 2 0;
#X connect 13 0 3 0;
#X connect 15 0 11 0;
#X connect 16 0 10 0;
#X connect 19 0 20 0;
