#N canvas 795 78 1010 864 12;
#X obj 25 87 s ON;
#X obj 25 55 tgl 15 0 empty empty empty 17 7 0 10 #fcfcfc #000000 #000000
0 1;
#X obj 142 56 r Whole_Note;
#X obj 142 80 bng 15 250 50 0 empty empty empty 17 7 0 10 #fcfcfc #000000
#000000;
#X obj 142 129 readsf~;
#X obj 142 157 send~ Crash;
#X text 42 52 ON/OFF;
#X text 23 14 Crash Cymbal;
#X msg 142 101 open crash.wav \, 1;
#X connect 1 0 0 0;
#X connect 2 0 3 0;
#X connect 3 0 8 0;
#X connect 4 0 5 0;
#X connect 8 0 4 0;
