#N canvas 529 57 818 669 12;
#X obj 58 188 inlet;
#X floatatom 58 219 5 0 0 0 - - - 0;
#X obj 58 494 sel 0;
#X obj 58 519 bng 15 250 50 0 empty empty empty 17 7 0 10 #fcfcfc #000000
#000000;
#X obj 58 571 readsf~;
#X obj 58 836 *~ 0.75;
#X obj 58 865 outlet~;
#X obj 189 517 bng 15 250 50 0 empty empty empty 17 7 0 10 #fcfcfc
#000000 #000000;
#X obj 189 569 readsf~;
#X obj 189 492 sel 1;
#X obj 326 519 bng 15 250 50 0 empty empty empty 17 7 0 10 #fcfcfc
#000000 #000000;
#X obj 326 571 readsf~;
#X obj 457 517 bng 15 250 50 0 empty empty empty 17 7 0 10 #fcfcfc
#000000 #000000;
#X obj 457 569 readsf~;
#X obj 326 494 sel 2;
#X obj 457 492 sel 3;
#X obj 590 517 bng 15 250 50 0 empty empty empty 17 7 0 10 #fcfcfc
#000000 #000000;
#X obj 590 569 readsf~;
#X obj 590 492 sel 4;
#X text 63 98 Drum Samples;
#X msg 58 542 open 01.wav \, 1;
#X msg 189 540 open 02.wav \, 1;
#X msg 326 542 open 03.wav \, 1;
#X msg 457 540 open 04.wav \, 1;
#X msg 590 540 open 05.wav \, 1;
#X connect 0 0 1 0;
#X connect 1 0 2 0;
#X connect 1 0 9 0;
#X connect 1 0 14 0;
#X connect 1 0 15 0;
#X connect 1 0 18 0;
#X connect 2 0 3 0;
#X connect 3 0 20 0;
#X connect 4 0 5 0;
#X connect 5 0 6 0;
#X connect 7 0 21 0;
#X connect 8 0 5 0;
#X connect 9 0 7 0;
#X connect 10 0 22 0;
#X connect 11 0 5 0;
#X connect 12 0 23 0;
#X connect 13 0 5 0;
#X connect 14 0 10 0;
#X connect 15 0 12 0;
#X connect 16 0 24 0;
#X connect 17 0 5 0;
#X connect 18 0 16 0;
#X connect 20 0 4 0;
#X connect 21 0 8 0;
#X connect 22 0 11 0;
#X connect 23 0 13 0;
#X connect 24 0 17 0;
