#N canvas 773 14 1136 884 12;
#X obj 209 449 sel 1 2 3 4 5 6 7 8 9 10 11 12 13 14 15 16;
#X obj -16 740 s 1/16;
#X obj -16 719 bng 15 250 50 0 empty empty empty 17 7 0 10 #fcfcfc
#000000 #000000;
#X obj 38 719 bng 15 250 50 0 empty empty empty 17 7 0 10 #fcfcfc #000000
#000000;
#X obj 38 740 s 2/16;
#X obj 92 719 bng 15 250 50 0 empty empty empty 17 7 0 10 #fcfcfc #000000
#000000;
#X obj 146 719 bng 15 250 50 0 empty empty empty 17 7 0 10 #fcfcfc
#000000 #000000;
#X obj 92 740 s 3/16;
#X obj 146 740 s 4/16;
#X obj 204 720 bng 15 250 50 0 empty empty empty 17 7 0 10 #fcfcfc
#000000 #000000;
#X obj 258 720 bng 15 250 50 0 empty empty empty 17 7 0 10 #fcfcfc
#000000 #000000;
#X obj 312 720 bng 15 250 50 0 empty empty empty 17 7 0 10 #fcfcfc
#000000 #000000;
#X obj 366 720 bng 15 250 50 0 empty empty empty 17 7 0 10 #fcfcfc
#000000 #000000;
#X obj 204 741 s 5/16;
#X obj 258 741 s 6/16;
#X obj 312 741 s 7/16;
#X obj 366 741 s 8/16;
#X obj 419 721 bng 15 250 50 0 empty empty empty 17 7 0 10 #fcfcfc
#000000 #000000;
#X obj 474 721 bng 15 250 50 0 empty empty empty 17 7 0 10 #fcfcfc
#000000 #000000;
#X obj 535 720 bng 15 250 50 0 empty empty empty 17 7 0 10 #fcfcfc
#000000 #000000;
#X obj 601 718 bng 15 250 50 0 empty empty empty 17 7 0 10 #fcfcfc
#000000 #000000;
#X obj 419 742 s 9/16;
#X obj 474 742 s 10/16;
#X obj 535 741 s 11/16;
#X obj 601 739 s 12/16;
#X obj 667 716 bng 15 250 50 0 empty empty empty 17 7 0 10 #fcfcfc
#000000 #000000;
#X obj 729 716 bng 15 250 50 0 empty empty empty 17 7 0 10 #fcfcfc
#000000 #000000;
#X obj 667 737 s 13/16;
#X obj 729 737 s 14/16;
#X obj 802 715 bng 15 250 50 0 empty empty empty 17 7 0 10 #fcfcfc
#000000 #000000;
#X obj 873 711 bng 15 250 50 0 empty empty empty 17 7 0 10 #fcfcfc
#000000 #000000;
#X obj 802 736 s 15/16;
#X obj 873 732 s 16/16;
#X text 5 -83 Drum Clock;
#X obj 8 -54 tgl 15 0 empty empty empty 17 7 0 10 #fcfcfc #000000 #000000
0 1;
#X text 37 -56 ON/OFF;
#X obj 8 -27 s On;
#X obj 264 -95 r ON;
#X obj 264 -62 tgl 15 0 empty empty empty 17 7 0 10 #fcfcfc #000000
#000000 0 1;
#X obj 264 54 metro;
#X floatatom 296 23 5 0 0 0 - - - 0;
#X obj 297 -4 / 4;
#X obj 297 -41 r 4th_time;
#X obj 148 -82 loadbang;
#X obj 222 11 sel 0;
#X obj 148 69 bng 15 250 50 0 empty empty empty 17 7 0 10 #fcfcfc #000000
#000000;
#X text 103 67 reset;
#X obj 264 96 bng 15 250 50 0 empty empty empty 17 7 0 10 #fcfcfc #000000
#000000;
#X obj 264 198 int 1;
#X obj 323 238 + 1;
#X msg 148 132 - 1;
#X obj 264 336 + 1;
#X floatatom 264 369 5 0 0 0 - - - 0;
#X floatatom 264 268 5 0 0 0 - - - 0;
#X obj 264 298 % 16;
#X connect 0 0 2 0;
#X connect 0 1 3 0;
#X connect 0 2 5 0;
#X connect 0 3 6 0;
#X connect 0 4 9 0;
#X connect 0 5 10 0;
#X connect 0 6 11 0;
#X connect 0 7 12 0;
#X connect 0 8 17 0;
#X connect 0 9 18 0;
#X connect 0 10 19 0;
#X connect 0 11 20 0;
#X connect 0 12 25 0;
#X connect 0 13 26 0;
#X connect 0 14 29 0;
#X connect 0 15 30 0;
#X connect 2 0 1 0;
#X connect 3 0 4 0;
#X connect 5 0 7 0;
#X connect 6 0 8 0;
#X connect 9 0 13 0;
#X connect 10 0 14 0;
#X connect 11 0 15 0;
#X connect 12 0 16 0;
#X connect 17 0 21 0;
#X connect 18 0 22 0;
#X connect 19 0 23 0;
#X connect 20 0 24 0;
#X connect 25 0 27 0;
#X connect 26 0 28 0;
#X connect 29 0 31 0;
#X connect 30 0 32 0;
#X connect 34 0 36 0;
#X connect 37 0 38 0;
#X connect 38 0 39 0;
#X connect 38 0 44 0;
#X connect 39 0 47 0;
#X connect 40 0 39 1;
#X connect 41 0 40 0;
#X connect 42 0 41 0;
#X connect 43 0 45 0;
#X connect 44 0 45 0;
#X connect 45 0 50 0;
#X connect 47 0 48 0;
#X connect 48 0 49 0;
#X connect 48 0 53 0;
#X connect 49 0 48 1;
#X connect 50 0 48 0;
#X connect 51 0 52 0;
#X connect 52 0 0 0;
#X connect 53 0 54 0;
#X connect 54 0 51 0;
