#N canvas 877 2 1920 976 12;
#X obj 30 283 receive One;
#X obj 30 365 spigot;
#X obj 52 417 loadbang;
#X msg 52 449 set 40;
#X msg 30 483 40;
#X obj 30 510 s Bass_Freq;
#X obj 30 342 bng 15 250 50 0 empty empty empty 17 7 0 10 #fcfcfc #000000
#000000;
#X obj 117 194 bng 15 250 50 0 empty empty empty 17 7 0 10 #fcfcfc
#000000 #000000;
#X obj 117 163 r New_Pattern;
#X obj 117 282 < 100;
#X obj 117 311 tgl 15 0 empty empty empty 17 7 0 10 #fcfcfc #000000
#000000 0 1;
#X obj 30 456 bng 15 250 50 0 empty empty empty 17 7 0 10 #fcfcfc #000000
#000000;
#X text 56 484 E;
#X obj 117 216 random 100;
#X floatatom 117 246 5 0 0 0 - - - 0;
#X obj 298 396 spigot;
#X obj 298 507 s Bass_Freq;
#X obj 298 373 bng 15 250 50 0 empty empty empty 17 7 0 10 #fcfcfc
#000000 #000000;
#X obj 407 220 bng 15 250 50 0 empty empty empty 17 7 0 10 #fcfcfc
#000000 #000000;
#X obj 407 189 r New_Pattern;
#X obj 407 337 tgl 15 0 empty empty empty 17 7 0 10 #fcfcfc #000000
#000000 0 1;
#X obj 298 453 bng 15 250 50 0 empty empty empty 17 7 0 10 #fcfcfc
#000000 #000000;
#X obj 407 242 random 100;
#X floatatom 407 272 5 0 0 0 - - - 0;
#X obj 407 308 < 90;
#X obj 298 314 receive Two;
#X obj 388 390 r New_Pattern;
#X obj 188 771 r Bass_Freq;
#X floatatom 188 807 5 0 0 0 - - - 0;
#X obj 187 871 send~ Bass;
#X obj 388 417 bass-note;
#X obj 299 795 s ON;
#X obj 299 771 tgl 15 0 empty empty empty 17 7 0 10 #fcfcfc #000000
#000000 0 1;
#X text 324 770 ON/OFF;
#X obj 579 412 spigot;
#X obj 579 523 s Bass_Freq;
#X obj 579 389 bng 15 250 50 0 empty empty empty 17 7 0 10 #fcfcfc
#000000 #000000;
#X obj 688 236 bng 15 250 50 0 empty empty empty 17 7 0 10 #fcfcfc
#000000 #000000;
#X obj 688 205 r New_Pattern;
#X obj 688 353 tgl 15 0 empty empty empty 17 7 0 10 #fcfcfc #000000
#000000 0 1;
#X obj 579 469 bng 15 250 50 0 empty empty empty 17 7 0 10 #fcfcfc
#000000 #000000;
#X obj 688 258 random 100;
#X floatatom 688 288 5 0 0 0 - - - 0;
#X obj 669 406 r New_Pattern;
#X obj 669 433 bass-note;
#X msg 579 496 40;
#X msg 298 480 40;
#X obj 579 330 receive Three;
#X obj 688 324 < 85;
#X obj 833 421 spigot;
#X obj 833 532 s Bass_Freq;
#X obj 833 398 bng 15 250 50 0 empty empty empty 17 7 0 10 #fcfcfc
#000000 #000000;
#X obj 942 245 bng 15 250 50 0 empty empty empty 17 7 0 10 #fcfcfc
#000000 #000000;
#X obj 942 214 r New_Pattern;
#X obj 942 362 tgl 15 0 empty empty empty 17 7 0 10 #fcfcfc #000000
#000000 0 1;
#X obj 833 478 bng 15 250 50 0 empty empty empty 17 7 0 10 #fcfcfc
#000000 #000000;
#X obj 942 267 random 100;
#X floatatom 942 297 5 0 0 0 - - - 0;
#X obj 923 415 r New_Pattern;
#X obj 923 442 bass-note;
#X obj 833 339 receive Four;
#X obj 942 333 < 75;
#X msg 833 505 40;
#X obj 1135 416 spigot;
#X obj 1135 527 s Bass_Freq;
#X obj 1135 393 bng 15 250 50 0 empty empty empty 17 7 0 10 #fcfcfc
#000000 #000000;
#X obj 1244 240 bng 15 250 50 0 empty empty empty 17 7 0 10 #fcfcfc
#000000 #000000;
#X obj 1244 209 r New_Pattern;
#X obj 1244 357 tgl 15 0 empty empty empty 17 7 0 10 #fcfcfc #000000
#000000 0 1;
#X obj 1135 473 bng 15 250 50 0 empty empty empty 17 7 0 10 #fcfcfc
#000000 #000000;
#X obj 1244 262 random 100;
#X floatatom 1244 292 5 0 0 0 - - - 0;
#X obj 1244 328 < 90;
#X obj 1225 410 r New_Pattern;
#X obj 1225 437 bass-note;
#X obj 1416 432 spigot;
#X obj 1416 543 s Bass_Freq;
#X obj 1416 409 bng 15 250 50 0 empty empty empty 17 7 0 10 #fcfcfc
#000000 #000000;
#X obj 1525 256 bng 15 250 50 0 empty empty empty 17 7 0 10 #fcfcfc
#000000 #000000;
#X obj 1525 225 r New_Pattern;
#X obj 1525 373 tgl 15 0 empty empty empty 17 7 0 10 #fcfcfc #000000
#000000 0 1;
#X obj 1416 489 bng 15 250 50 0 empty empty empty 17 7 0 10 #fcfcfc
#000000 #000000;
#X obj 1525 278 random 100;
#X floatatom 1525 308 5 0 0 0 - - - 0;
#X obj 1506 426 r New_Pattern;
#X obj 1506 453 bass-note;
#X obj 1525 344 < 85;
#X obj 1670 441 spigot;
#X obj 1670 552 s Bass_Freq;
#X obj 1670 418 bng 15 250 50 0 empty empty empty 17 7 0 10 #fcfcfc
#000000 #000000;
#X obj 1779 265 bng 15 250 50 0 empty empty empty 17 7 0 10 #fcfcfc
#000000 #000000;
#X obj 1779 234 r New_Pattern;
#X obj 1779 382 tgl 15 0 empty empty empty 17 7 0 10 #fcfcfc #000000
#000000 0 1;
#X obj 1670 498 bng 15 250 50 0 empty empty empty 17 7 0 10 #fcfcfc
#000000 #000000;
#X obj 1779 287 random 100;
#X floatatom 1779 317 5 0 0 0 - - - 0;
#X obj 1760 435 r New_Pattern;
#X obj 1760 462 bass-note;
#X obj 1779 353 < 75;
#X msg 1670 525 40;
#X obj 1135 334 receive Five;
#X msg 1135 500 40;
#X msg 1416 516 40;
#X obj 1416 350 receive Six;
#X obj 1670 359 receive Seven;
#X obj 1917 435 spigot;
#X obj 1917 546 s Bass_Freq;
#X obj 1917 412 bng 15 250 50 0 empty empty empty 17 7 0 10 #fcfcfc
#000000 #000000;
#X obj 2026 259 bng 15 250 50 0 empty empty empty 17 7 0 10 #fcfcfc
#000000 #000000;
#X obj 2026 228 r New_Pattern;
#X obj 2026 376 tgl 15 0 empty empty empty 17 7 0 10 #fcfcfc #000000
#000000 0 1;
#X obj 1917 492 bng 15 250 50 0 empty empty empty 17 7 0 10 #fcfcfc
#000000 #000000;
#X obj 2026 281 random 100;
#X floatatom 2026 311 5 0 0 0 - - - 0;
#X obj 2007 429 r New_Pattern;
#X obj 2007 456 bass-note;
#X obj 1917 353 receive Eight;
#X msg 1917 519 40;
#X obj 2026 347 < 90;
#X obj 188 836 ac-bass;
#X connect 0 0 6 0;
#X connect 1 0 11 0;
#X connect 2 0 3 0;
#X connect 3 0 4 0;
#X connect 4 0 5 0;
#X connect 6 0 1 0;
#X connect 7 0 13 0;
#X connect 8 0 7 0;
#X connect 9 0 10 0;
#X connect 10 0 1 1;
#X connect 11 0 4 0;
#X connect 13 0 14 0;
#X connect 14 0 9 0;
#X connect 15 0 21 0;
#X connect 17 0 15 0;
#X connect 18 0 22 0;
#X connect 19 0 18 0;
#X connect 20 0 15 1;
#X connect 21 0 46 0;
#X connect 22 0 23 0;
#X connect 23 0 24 0;
#X connect 24 0 20 0;
#X connect 25 0 17 0;
#X connect 26 0 30 0;
#X connect 27 0 28 0;
#X connect 28 0 119 0;
#X connect 30 0 46 0;
#X connect 32 0 31 0;
#X connect 34 0 40 0;
#X connect 36 0 34 0;
#X connect 37 0 41 0;
#X connect 38 0 37 0;
#X connect 39 0 34 1;
#X connect 40 0 45 0;
#X connect 41 0 42 0;
#X connect 42 0 48 0;
#X connect 43 0 44 0;
#X connect 44 0 45 0;
#X connect 45 0 35 0;
#X connect 46 0 16 0;
#X connect 47 0 36 0;
#X connect 48 0 39 0;
#X connect 49 0 55 0;
#X connect 51 0 49 0;
#X connect 52 0 56 0;
#X connect 53 0 52 0;
#X connect 54 0 49 1;
#X connect 55 0 62 0;
#X connect 56 0 57 0;
#X connect 57 0 61 0;
#X connect 58 0 59 0;
#X connect 59 0 62 0;
#X connect 60 0 51 0;
#X connect 61 0 54 0;
#X connect 62 0 50 0;
#X connect 63 0 69 0;
#X connect 65 0 63 0;
#X connect 66 0 70 0;
#X connect 67 0 66 0;
#X connect 68 0 63 1;
#X connect 69 0 101 0;
#X connect 70 0 71 0;
#X connect 71 0 72 0;
#X connect 72 0 68 0;
#X connect 73 0 74 0;
#X connect 74 0 101 0;
#X connect 75 0 81 0;
#X connect 77 0 75 0;
#X connect 78 0 82 0;
#X connect 79 0 78 0;
#X connect 80 0 75 1;
#X connect 81 0 102 0;
#X connect 82 0 83 0;
#X connect 83 0 86 0;
#X connect 84 0 85 0;
#X connect 85 0 102 0;
#X connect 86 0 80 0;
#X connect 87 0 93 0;
#X connect 89 0 87 0;
#X connect 90 0 94 0;
#X connect 91 0 90 0;
#X connect 92 0 87 1;
#X connect 93 0 99 0;
#X connect 94 0 95 0;
#X connect 95 0 98 0;
#X connect 96 0 97 0;
#X connect 97 0 99 0;
#X connect 98 0 92 0;
#X connect 99 0 88 0;
#X connect 100 0 65 0;
#X connect 101 0 64 0;
#X connect 102 0 76 0;
#X connect 103 0 77 0;
#X connect 104 0 89 0;
#X connect 105 0 111 0;
#X connect 107 0 105 0;
#X connect 108 0 112 0;
#X connect 109 0 108 0;
#X connect 110 0 105 1;
#X connect 111 0 117 0;
#X connect 112 0 113 0;
#X connect 113 0 118 0;
#X connect 114 0 115 0;
#X connect 115 0 117 0;
#X connect 116 0 107 0;
#X connect 117 0 106 0;
#X connect 118 0 110 0;
#X connect 119 0 29 0;
