#N canvas -6 13 1007 840 12;
#X obj 21 40 receive~ Crash;
#X obj 21 77 *~ 1;
#X obj 143 43 receive~ Drums;
#X obj 143 80 *~ 0.4;
#X obj 261 79 *~ 0.75;
#X obj 375 38 receive~ Ambient-Pad;
#X obj 375 75 *~ 0.5;
#X obj 549 35 loadbang;
#X msg 549 65 1;
#X msg 549 94 wet \$1;
#X obj 618 35 loadbang;
#X msg 618 65 0;
#X msg 618 94 dry \$1;
#X obj 690 34 loadbang;
#X msg 690 64 0.95;
#X msg 690 93 roomsize \$1;
#X obj 20 335 *~ 0.75;
#X obj 20 385 *~ 1;
#X obj 71 384 *~ 1;
#X obj 20 428 dac~;
#X obj 376 183 freeverb~;
#X text 462 181 *freeverb is an external plugin;
#X obj 262 14 receive~ Bass;
#X connect 0 0 1 0;
#X connect 1 0 16 0;
#X connect 2 0 3 0;
#X connect 3 0 16 0;
#X connect 4 0 16 0;
#X connect 5 0 6 0;
#X connect 6 0 20 0;
#X connect 7 0 8 0;
#X connect 8 0 9 0;
#X connect 9 0 20 0;
#X connect 10 0 11 0;
#X connect 11 0 12 0;
#X connect 12 0 20 0;
#X connect 13 0 14 0;
#X connect 14 0 15 0;
#X connect 15 0 20 0;
#X connect 16 0 17 0;
#X connect 16 0 18 0;
#X connect 17 0 19 0;
#X connect 18 0 19 1;
#X connect 20 0 17 0;
#X connect 20 1 18 0;
#X connect 22 0 4 0;
