#N canvas 879 111 1003 828 12;
#X obj 25 23 inlet;
#X obj 25 78 random 8;
#X floatatom 25 106 5 0 0 0 - - - 0;
#X obj 25 176 sel 0;
#X obj 107 380 mtof;
#X obj 25 54 bng 15 250 50 0 empty empty empty 17 7 0 10 #fcfcfc #000000
#000000;
#X floatatom 107 408 5 0 0 0 - - - 0;
#X obj 107 437 outlet;
#X msg 25 208 64;
#X obj 378 171 sel 7;
#X msg 378 203 76;
#X floatatom 107 356 5 0 0 0 - - - 0;
#X text 403 203 E;
#X obj 331 173 sel 6;
#X msg 331 205 74;
#X text 357 205 D;
#X text 143 27 MIDI Scale subpatch;
#X text 142 59 E Phyrigian Scale;
#X obj 278 173 sel 5;
#X msg 278 205 72;
#X text 305 206 C;
#X obj 229 173 sel 4;
#X msg 229 205 71;
#X text 255 206 B;
#X text 202 207 A;
#X obj 177 175 sel 3;
#X msg 177 207 69;
#X text 53 208 E;
#X obj 76 176 sel 1;
#X msg 76 208 65;
#X text 101 208 F;
#X obj 125 174 sel 2;
#X msg 125 206 67;
#X text 150 206 G;
#X connect 0 0 5 0;
#X connect 1 0 2 0;
#X connect 2 0 3 0;
#X connect 3 0 8 0;
#X connect 4 0 6 0;
#X connect 5 0 1 0;
#X connect 6 0 7 0;
#X connect 8 0 11 0;
#X connect 9 0 10 0;
#X connect 10 0 11 0;
#X connect 11 0 4 0;
#X connect 13 0 14 0;
#X connect 14 0 11 0;
#X connect 18 0 19 0;
#X connect 19 0 11 0;
#X connect 21 0 22 0;
#X connect 22 0 11 0;
#X connect 25 0 26 0;
#X connect 26 0 11 0;
#X connect 28 0 29 0;
#X connect 29 0 11 0;
#X connect 31 0 32 0;
#X connect 32 0 11 0;
